<svg xmlns="http://www.w3.org/2000/svg" width="67.112" height="79.296" viewBox="0 0 67.112 79.296">
    <g transform="translate(216.662 256)">
        <g transform="translate(-216.662 -256)">
            <g transform="translate(47.07)">
                <path d="M361.992,41.826h-7.2V18.956l6-17.219A1.307,1.307,0,0,0,359.552,0H347a1.307,1.307,0,0,0-1.225,1.763l6.4,17.208V41.826h-7.612a1.307,1.307,0,0,0-1.307,1.307V69.275a10.021,10.021,0,0,0,20.042,0V43.133A1.307,1.307,0,0,0,361.992,41.826ZM348.884,2.614h8.828l-4.27,12.261Zm11.8,66.661a7.407,7.407,0,0,1-14.814,0V44.441h14.814Z"
                      transform="translate(-343.257 0)" fill="#f4f4f4"/>
            </g>
            <g transform="translate(0 24.399)">
                <path d="M79.824,170.613a7.393,7.393,0,0,0-5.651-2.619h-2.82V165.38h.436a1.307,1.307,0,0,0,0-2.614h-.436v-3.921a1.307,1.307,0,0,0-1.307-1.307H50.874a1.307,1.307,0,0,0-1.307,1.307v3.921h-.436a1.307,1.307,0,1,0,0,2.614h.436v2.614H46.746a7.407,7.407,0,0,0-7.306,8.625l5.787,34.724a1.307,1.307,0,0,0,1.289,1.092H74.4a1.307,1.307,0,0,0,1.289-1.092l5.787-34.724A7.393,7.393,0,0,0,79.824,170.613ZM52.181,160.151H68.737v2.614H52.181ZM78.9,176.188,73.294,209.82H47.624l-5.606-33.632a4.793,4.793,0,0,1,4.728-5.58h4.128a1.307,1.307,0,0,0,1.307-1.307V165.38H68.737v2.614H56.106a1.307,1.307,0,1,0,0,2.614H74.172a4.793,4.793,0,0,1,4.727,5.58Z"
                      transform="translate(-39.338 -157.537)" fill="#f4f4f4"/>
            </g>
        </g>
    </g>
</svg>