<svg xmlns="http://www.w3.org/2000/svg" width="158.426" height="101.315" viewBox="0 0 158.426 101.315">
    <g transform="translate(78.895 50.34)">
        <g transform="translate(-78.48 -49.925)">
            <path d="M2.059,95.228A1.658,1.658,0,0,1,.4,93.791a43.765,43.765,0,0,1,1.547-6.3q1.216-3.758,2.984-8.4t4.089-9.947l4.642-10.72a.884.884,0,0,1-.995-.442H9.8l-2.542-.221Q1.285,56.657.622,54.447C.07,53.452.512,53.01,1.728,52.789s1.879-.111,2.321.884.663.442,1.658.774A24.093,24.093,0,0,0,10.79,55a18.125,18.125,0,0,0,4.531,0l3.868-8.289,5.084-11.494q2.431-5.415,4.2-9.836a63.77,63.77,0,0,0,2.873-7.515A14.257,14.257,0,0,0,31.9,15.1a1,1,0,0,1-.111-1.216Q32.231,12.56,34,13t1.216.884l.442.995a3.868,3.868,0,0,1-.111,1.768,24.545,24.545,0,0,1-.995,3.426q-.774,2.21-2.21,5.747L27.92,35.88,22.5,47.484l-3.316,7.073c3.979-.332,7.847-.884,11.715-1.547a110.519,110.519,0,0,0,13.483-3.426,85.463,85.463,0,0,0,8.62-3.205A98.03,98.03,0,0,0,62.4,41.958,77.362,77.362,0,0,0,71.8,35.99a50.4,50.4,0,0,0,8.51-7.957,32.6,32.6,0,0,0,4.973-6.852,13.925,13.925,0,0,0,1.547-5.415,7.847,7.847,0,0,0-.774-3.979,10.168,10.168,0,0,0-2.21-2.763A20.335,20.335,0,0,0,73.9,4.382,69.184,69.184,0,0,0,59.2,3.166,97.035,97.035,0,0,0,41.625,4.934,111.733,111.733,0,0,0,23.942,9.908a1.989,1.989,0,0,1-2.321-.774,1,1,0,0,1-.111-1.105,1.547,1.547,0,0,1,.995-.774A113.5,113.5,0,0,1,40.74,2.393,109.191,109.191,0,0,1,59.307.4,64.985,64.985,0,0,1,75.664,1.951a24.2,24.2,0,0,1,10.61,5.084,13.373,13.373,0,0,1,2.873,3.426,9.5,9.5,0,0,1,1.216,4.863,15.583,15.583,0,0,1-1.658,6.3,31.719,31.719,0,0,1-5.636,7.957,62.443,62.443,0,0,1-9.394,8.62,83.331,83.331,0,0,1-10.389,6.631A96.812,96.812,0,0,1,53.008,49.8a99.466,99.466,0,0,1-9.726,3.316,95.268,95.268,0,0,1-10.389,2.542L22.726,57.209a85.632,85.632,0,0,1,9.726,2.542,75.151,75.151,0,0,1,11.162,4.421,71.283,71.283,0,0,1,11.162,6.852,46.418,46.418,0,0,1,9.836,10.168,1.105,1.105,0,0,1,.442,1.105,1.437,1.437,0,0,1-.884.884h-.995a1.879,1.879,0,0,1-1.658-.774C55.66,74.671,47.15,68.372,36.762,64.283a74.71,74.71,0,0,0-11.273-3.537l-8.51-1.768L12.337,69.7q-2.21,5.3-3.868,9.836T5.485,87.823a25.53,25.53,0,0,0-1.547,6.189A1.658,1.658,0,0,1,2.17,95.228Z"
                  transform="translate(-0.387 -0.369)" fill="#fff" stroke="#fff" stroke-miterlimit="10"
                  stroke-width="0.829"/>
            <path d="M91.65,64.256c.442.442.442.774.111.995l-1.326,1.326L87.119,69.34a37.463,37.463,0,0,1-4.2,2.873A14.809,14.809,0,0,1,78.5,73.871H77.394a2.873,2.873,0,0,1-1.768-.553,1.989,1.989,0,0,1-.663-1.989,18.456,18.456,0,0,1,.553-2.542l.442-1.216-1.326,1.216-1.879,1.547L70.32,71.992l-2.763,1.216a9.283,9.283,0,0,1-3.095.553q-1.768.111-2.21-.663a3.315,3.315,0,0,1-.553-1.105,4.531,4.531,0,0,1,.663-2.21,17.683,17.683,0,0,1,3.426-4.089l1.547-1.326,1.437-1.216,1.879-1.216.663-.332a3.758,3.758,0,0,1,2.873.774A2.675,2.675,0,0,1,74.41,65.8a.774.774,0,0,1-.553.442h-.663q-.995-.332-.553-.995a2.542,2.542,0,0,0,.111-1.879,1.326,1.326,0,0,0-1.216-.332l-1.768,1.216a33.706,33.706,0,0,0-3.095,2.873,17.573,17.573,0,0,0-2.763,3.426,3.426,3.426,0,0,0-.663,1.768v.221h.663a8.068,8.068,0,0,0,2.542-.442,12.156,12.156,0,0,0,2.431-1.216l2.1-1.437,1.768-1.437,2.1-1.547a1.768,1.768,0,0,1,1.658-.332,1.17,1.17,0,0,1,.995,1.437l-.442,1.658-.221,1.105L76.62,71.44a1.769,1.769,0,0,0,0,.884l.221.332q.111.221,1.105,0,2.984-.553,7.957-4.31l1.768-1.326L89,65.914l1.326-1.658a.553.553,0,0,1,.553-.332Z"
                  transform="translate(6.062 6.067)" fill="#fff" stroke="#fff" stroke-miterlimit="10"
                  stroke-width="2.089"/>
            <path d="M106.567,96a4.421,4.421,0,0,1-3.868-1.658,6.079,6.079,0,0,1-1.105-3.868,20.668,20.668,0,0,1,.663-4.642,48.956,48.956,0,0,1,1.879-5.968l-4.2.332-5.3.884a10.72,10.72,0,0,1-2.1,11.936,9.836,9.836,0,0,1-3.758,2.21A13.041,13.041,0,0,1,84.243,96a4.089,4.089,0,0,1-3.537-1.547,6.3,6.3,0,0,1-.995-3.758,22.876,22.876,0,0,1,.995-5.747q.995-3.426,2.542-7.847l.663-1.547.663-1.547-2.1-.442-2.1-.442a.684.684,0,0,1-.774-.774.553.553,0,0,1,.221-.553l.774-.221h.553l1.105-.442,1.768-1.105,2.542-1.768,1.216-.884,1.768-3.537L91.426,60.3l4.2-7.4q2.1-3.647,3.979-6.521l1.547-2.321,1.326-1.879a7.736,7.736,0,0,1,1.547-1.547l.995-.332A4.421,4.421,0,0,1,108,41.3a2.652,2.652,0,0,1,.995,2.21q0,2.873-3.647,8.068a52.277,52.277,0,0,1-3.647,4.752L97.173,61.3l-4.089,3.868-3.868,3.426-.774,1.658-.663,1.658,4.531-.221,5.194-.332,5.415-.442,5.415-.663,2.431-4.642,3.426-5.968,3.426-5.194,1.326-1.879,1.105-1.437a5.637,5.637,0,0,1,1.216-1.216l.995-.332.774.221a.855.855,0,0,1,.111.995l-.553.221a7.737,7.737,0,0,0-1.326,1.437,49.188,49.188,0,0,0-3.095,4.31l-3.647,5.968a59.131,59.131,0,0,0-3.426,6.521l-.553.995,6.521-1.216A31.055,31.055,0,0,0,122.04,67.6h.663a.774.774,0,0,1,.553.442.553.553,0,0,1,.111.553.774.774,0,0,1-.553.442,31.5,31.5,0,0,1-5.857,1.658l-7.294,1.216-1.989,3.316-1.326,3.316h.442a14.257,14.257,0,0,1,8.841,3.095,6.631,6.631,0,0,1,2.321,4.2c.332,3.316-1.547,6.631-5.084,8.62A12.71,12.71,0,0,1,106.567,96ZM86.232,74.892a72.609,72.609,0,0,0-3.979,11.494q-1.105,4.752-.111,6.742a2.321,2.321,0,0,0,1.105,1.216l1.216.221a8.841,8.841,0,0,0,6.521-2.542,7.626,7.626,0,0,0,1.879-2.763,12.267,12.267,0,0,0,.774-3.426,9.615,9.615,0,0,0-.774-4.642l-.774.221a1.216,1.216,0,0,1-1.105,0,.663.663,0,0,1-.332-.774,1,1,0,0,1,.884-.553H92.2a12.488,12.488,0,0,0-1.658-2.21,11.494,11.494,0,0,0-4.421-3.205Zm-.111-3.979-.995.663-.995.663h1.437Zm5.968,6.078a14.92,14.92,0,0,1,2.1,2.652,52.054,52.054,0,0,1,10.5-1.216l1.326-3.205,1.547-3.426-2.321.221-2.321.221-8.62.884-7.4.442h-.111a14.478,14.478,0,0,1,5.3,3.537Zm13.152-35.255a13.042,13.042,0,0,0-1.658,1.879,58.543,58.543,0,0,0-3.537,5.415l-4.531,7.515-4.421,8.178v.332l2.321-2.21,2.21-2.21,4.752-5.3a52.274,52.274,0,0,0,3.647-4.752,27.187,27.187,0,0,0,2.321-3.979,7.515,7.515,0,0,0,.774-2.984,1.547,1.547,0,0,0-.553-1.326,2.1,2.1,0,0,0-1.547-.442Zm.995,38.129a40.007,40.007,0,0,0-2.321,7.957,9.947,9.947,0,0,0,.11,5.084,2.542,2.542,0,0,0,2.763,1.658,9.394,9.394,0,0,0,8.62-4.531,6.3,6.3,0,0,0,.995-3.979,5.526,5.526,0,0,0-2.1-3.537,11.715,11.715,0,0,0-2.873-1.547,15.473,15.473,0,0,0-5.3-1.105Z"
                  transform="translate(7.943 3.83)" fill="#fff" stroke="#fff" stroke-miterlimit="10"
                  stroke-width="2.089"/>
            <path d="M139.741,69.753a30.394,30.394,0,0,1-5.415,3.537,17.572,17.572,0,0,1-6.852,1.547H126.7a4.752,4.752,0,0,1-3.537-1.216,2.763,2.763,0,0,1-.663-1.989,8.842,8.842,0,0,1,.553-2.542,14.919,14.919,0,0,1,1.216-2.652l1.326-2.431,1.105-1.768q.111-.663,1.105-.553l.663.332a.553.553,0,0,1,.111.553l-.442.884-.663,1.216-1.326,2.21a17.131,17.131,0,0,0-1.216,2.431,5.526,5.526,0,0,0-.553,2.431,2.321,2.321,0,0,0,.442,1.216,3.426,3.426,0,0,0,2.763.663,19.562,19.562,0,0,0,6.189-1.547,26.194,26.194,0,0,0,5.194-3.205l2.984-2.542L142.946,65l.553-.221.663.221a.663.663,0,0,1,.332.442.553.553,0,0,1-.221.553l-1.216,1.216ZM129.905,58.48a2.321,2.321,0,0,1-2.542-1.989,2.321,2.321,0,0,1,2.542-1.989,2.984,2.984,0,0,1,1.879.663,1.658,1.658,0,0,1,.442,2.321l-.442.442a2.984,2.984,0,0,1-1.879.663Zm0-2.652a.663.663,0,1,0,0,1.326.663.663,0,0,0,.332-1.216h-.332Z"
                  transform="translate(12.456 5.323)" fill="#fff" stroke="#fff" stroke-miterlimit="10"
                  stroke-width="2.089"/>
            <text transform="translate(109.759 22.617)" fill="#fff" font-size="7"
                  font-family="DINAlternate-Bold, DIN Alternate" font-weight="700" letter-spacing="0.09em">
                <tspan x="0" y="0">Na</tspan>
            </text>
            <text transform="translate(120.81 22.617)" fill="#fff" font-size="7"
                  font-family="DINAlternate-Bold, DIN Alternate" font-weight="700" letter-spacing="0.07em">
                <tspan x="0" y="0">i</tspan>
            </text>
            <text transform="translate(123.352 22.617)" fill="#fff" font-size="7"
                  font-family="DINAlternate-Bold, DIN Alternate" font-weight="700" letter-spacing="0.08em">
                <tspan x="0" y="0">l</tspan>
            </text>
            <text transform="translate(126.115 22.617)" fill="#fff" font-size="7"
                  font-family="DINAlternate-Bold, DIN Alternate" font-weight="700" letter-spacing="0.1em">
                <tspan x="0" y="0">l</tspan>
            </text>
            <text transform="translate(131.752 22.617)" fill="#fff" font-size="7"
                  font-family="DINAlternate-Bold, DIN Alternate" font-weight="700" letter-spacing="0.07em">
                <tspan x="0" y="0">Sa</tspan>
            </text>
            <text transform="translate(141.588 22.617)" fill="#fff" font-size="7"
                  font-family="DINAlternate-Bold, DIN Alternate" font-weight="700" letter-spacing="0.08em">
                <tspan x="0" y="0">llo</tspan>
            </text>
            <text transform="translate(151.755 22.617)" fill="#fff" font-size="7"
                  font-family="DINAlternate-Bold, DIN Alternate" font-weight="700" letter-spacing="0.1em">
                <tspan x="0" y="0">n</tspan>
            </text>
        </g>
    </g>
</svg>