<svg xmlns="http://www.w3.org/2000/svg" width="247.835" height="158.188" viewBox="0 0 247.835 158.188">
    <g transform="translate(123.633 78.807)">
        <g transform="translate(-123.254 -78.432)">
            <g transform="translate(-0.4 -0.352)">
                <path d="M3,149.4a2.6,2.6,0,0,1-2.6-2.3,68.7,68.7,0,0,1,2.4-10q1.9-6,4.7-13.3t6.4-15.6l7.3-16.9a1.4,1.4,0,0,1-1.5-.7H15.2l-4.1-.3Q1.9,88.8.8,85.3C0,83.9.6,83,2.5,82.7s3-.2,3.7,1.3,1.1.7,2.6,1.2a37.9,37.9,0,0,0,7.9.8,28.5,28.5,0,0,0,7.1,0l6-13.1L38,55.2q3.9-8.5,6.7-15.4A100.2,100.2,0,0,0,49.1,28a22.3,22.3,0,0,0,.9-4.3,1.5,1.5,0,0,1-.2-2q.6-2.2,3.4-1.3t1.9,1.3l.6,1.5a6.1,6.1,0,0,1-.2,2.8A46.7,46.7,0,0,1,54,31.3q-1.1,3.3-3.4,9L43.7,56,35.2,74.4,30,85.5c6.2-.5,12.4-1.4,18.5-2.5a173.7,173.7,0,0,0,21.3-5.3q6.2-2,13.5-5a154,154,0,0,0,14.8-7,121.6,121.6,0,0,0,14.8-9.5,79.2,79.2,0,0,0,13.3-12.4A51.2,51.2,0,0,0,133.9,33a21.9,21.9,0,0,0,2.4-8.5,12.3,12.3,0,0,0-1.3-6.3,16.1,16.1,0,0,0-3.4-4.3,31.9,31.9,0,0,0-15.7-7.3,108.7,108.7,0,0,0-23.2-2,152.4,152.4,0,0,0-27.5,3,175.5,175.5,0,0,0-27.9,7.8,3.1,3.1,0,0,1-3.7-1.2,1.6,1.6,0,0,1-.1-1.7,2.4,2.4,0,0,1,1.6-1.1A178.3,178.3,0,0,1,63.7,3.6,171.5,171.5,0,0,1,92.9.4a102.1,102.1,0,0,1,25.8,2.5,38,38,0,0,1,16.7,8,21,21,0,0,1,4.5,5.3,14.9,14.9,0,0,1,1.9,7.6,24.5,24.5,0,0,1-2.6,10,49.9,49.9,0,0,1-8.8,12.4,98.2,98.2,0,0,1-14.8,13.6A131,131,0,0,1,99.4,70.3,152.2,152.2,0,0,1,83,78.1a156.3,156.3,0,0,1-15.2,5.1,149.7,149.7,0,0,1-16.3,4q-8.2,1.5-15.9,2.5a141.2,141.2,0,0,1,15.2,4,118.1,118.1,0,0,1,17.6,7A112.1,112.1,0,0,1,86,111.4a73,73,0,0,1,15.5,15.9,1.7,1.7,0,0,1,.6,1.7,2.2,2.2,0,0,1-1.5,1.4H99.1a3,3,0,0,1-2.6-1.2c-9.1-12.2-22.6-22.1-38.9-28.5a117.3,117.3,0,0,0-17.8-5.6L26.6,92.3q-3.6,8.6-7.3,16.9T13,124.7q-2.8,7.3-4.7,13.1A40.1,40.1,0,0,0,6,147.5a2.7,2.7,0,0,1-2.8,1.8Z"
                      fill="#14100e" stroke="#14100e" stroke-miterlimit="10" stroke-width="0.75"/>
                <path d="M153.9,110.9c.6.7.6,1.2.2,1.5l-2.1,2.2-5.2,4.3a58.8,58.8,0,0,1-6.7,4.5,23.2,23.2,0,0,1-6.9,2.7h-1.7a4.6,4.6,0,0,1-2.8-.8,3.1,3.1,0,0,1-1.1-3.2,29,29,0,0,1,.9-4l.6-1.8-2.1,1.8-3,2.5-3.9,2.7-4.3,2a14.5,14.5,0,0,1-4.9.8q-2.8.2-3.4-1a5.1,5.1,0,0,1-.9-1.7,7.2,7.2,0,0,1,1.1-3.5,27.7,27.7,0,0,1,5.4-6.5l2.4-2.2,2.6-2.2,3-1.8,1.1-.5a5.9,5.9,0,0,1,4.5,1.2,4.7,4.7,0,0,1,1.1,1.8,4.8,4.8,0,0,1-.6,3.5,1.2,1.2,0,0,1-.8.6,1.6,1.6,0,0,1-1.1-.1q-1.5-.5-.9-1.5a4,4,0,0,0,.2-3,2,2,0,0,0-1.9-.5l-2.8,1.8A53,53,0,0,0,115,115a27.6,27.6,0,0,0-4.3,5.3,5.4,5.4,0,0,0-1.1,2.8v.3h1.1a12.7,12.7,0,0,0,4.1-.7,19.1,19.1,0,0,0,3.9-1.8l3.2-2.3,2.8-2.3,3.2-2.5a2.9,2.9,0,0,1,2.6-.5q1.7.3,1.5,2.3l-.6,2.7L131,120l-.4,1.7a2.8,2.8,0,0,0,0,1.3l.4.5q.2.3,1.7,0,4.7-.8,12.5-6.8l2.8-2.2,2.1-1.8,1.9-1.8a.9.9,0,0,1,.9-.5Z"
                      fill="#14100e" stroke="#14100e" stroke-miterlimit="10" stroke-width="1.89"/>
                <path d="M180.3,157.2a7,7,0,0,1-6-2.7,9.5,9.5,0,0,1-1.7-6.1,32.5,32.5,0,0,1,1.1-7.3,76.9,76.9,0,0,1,3-9.5l-6.7.5-8.4,1.3a16.9,16.9,0,0,1-3.2,18.7,15.5,15.5,0,0,1-6,3.8,20.5,20.5,0,0,1-7.1,1.2,6.5,6.5,0,0,1-5.6-2.5,9.9,9.9,0,0,1-1.5-6,35.9,35.9,0,0,1,1.5-9q1.5-5.3,4.1-12.3l1.1-2.5,1.1-2.5-3.2-.7-3.7-.5q-1.3,0-1.3-1.2a.9.9,0,0,1,.4-.9,1.5,1.5,0,0,1,1.1-.3h.9l1.7-.7,2.8-1.7,4.1-2.8,1.9-1.3,2.8-5.6,3-5.6,6.7-11.6q3.2-5.8,6.2-10.3l2.4-3.6,2.1-3a12.2,12.2,0,0,1,2.4-2.5,3,3,0,0,1,1.5-.5,7,7,0,0,1,4.7,1.5,4.2,4.2,0,0,1,1.5,3.5q0,4.5-5.8,12.6a82.106,82.106,0,0,1-5.8,7.5l-7.1,7.8-6.4,6.1-6,5.3-1.3,2.7-1.1,2.7,7.1-.3,8.2-.5,8.6-.7,8.6-1,3.9-7.3,5.4-9.5,5.4-8.1,2.1-3,1.7-2.3a8.9,8.9,0,0,1,1.9-2,3,3,0,0,1,1.5-.5,1.5,1.5,0,0,1,1.1.3.9.9,0,0,1,.4.9.8.8,0,0,1-.2.8,1.4,1.4,0,0,1-.9.4,12.2,12.2,0,0,0-2.1,2.3,77.3,77.3,0,0,0-4.9,6.8l-5.8,9.3a92.906,92.906,0,0,0-5.4,10.3l-.9,1.5,10.3-1.8a48.9,48.9,0,0,0,7.7-2.3,1.6,1.6,0,0,1,1.1-.1,1.2,1.2,0,0,1,.8.6.8.8,0,0,1,.2.9,1.2,1.2,0,0,1-.8.6,49.4,49.4,0,0,1-9.2,2.7L184.8,119l-2.8,5.5-2.1,5.1h.6a22.5,22.5,0,0,1,14,4.8,10.3,10.3,0,0,1,3.7,6.6c.6,5.3-2.4,10.4-7.9,13.6a20,20,0,0,1-10,2.6Zm-32-33.2a114,114,0,0,0-6.2,18.1q-1.7,7.5-.2,10.6a3.6,3.6,0,0,0,1.7,2l1.9.3a13.9,13.9,0,0,0,10.3-4,12.1,12.1,0,0,0,3-4.3,19.3,19.3,0,0,0,1.3-5.3,15.1,15.1,0,0,0-1.3-7.3l-1.3.3a1.9,1.9,0,0,1-1.7-.1,1,1,0,0,1-.5-1.3,1.5,1.5,0,0,1,1.3-.8h1.1a19.5,19.5,0,0,0-2.6-3.5,18,18,0,0,0-6.9-5Zm-.2-6.3-1.5,1-1.5,1h2.1Zm9.4,9.6a23.5,23.5,0,0,1,3.2,4.1,81.8,81.8,0,0,1,16.5-2l2.1-5,2.4-5.3-3.7.3-3.7.3L161,121.2l-11.6.7h-.2a22.7,22.7,0,0,1,8.4,5.5Zm20.6-55.4a20.4,20.4,0,0,0-2.6,3q-1.9,2.5-5.6,8.5l-7.1,11.8L156,107.9v.5l3.7-3.5,3.4-3.5q4.1-4.3,7.5-8.3a82.1,82.1,0,0,0,5.8-7.5,42.7,42.7,0,0,0,3.7-6.3,11.8,11.8,0,0,0,1.3-4.6,2.4,2.4,0,0,0-.9-2.2,3.3,3.3,0,0,0-2.4-.7Zm1.5,59.9a62.9,62.9,0,0,0-3.7,12.4,15.6,15.6,0,0,0,.2,8c.3,1.6,2.2,2.8,4.3,2.7a14.8,14.8,0,0,0,13.5-7.1,9.9,9.9,0,0,0,1.5-6.3,8.7,8.7,0,0,0-3.2-5.5,18.5,18.5,0,0,0-4.5-2.5,24.2,24.2,0,0,0-8.4-1.7Z"
                      fill="#14100e" stroke="#14100e" stroke-miterlimit="10" stroke-width="1.89"/>
                <path d="M239.5,118.4a47.8,47.8,0,0,1-8.6,5.5,27.6,27.6,0,0,1-10.7,2.5h-1.3a7.4,7.4,0,0,1-5.6-1.8,4.4,4.4,0,0,1-1.1-3.2,13.9,13.9,0,0,1,.9-4,23.4,23.4,0,0,1,1.9-4.1l2.1-3.8,1.7-2.8q.2-1,1.7-.8a1.5,1.5,0,0,1,1,.6.9.9,0,0,1,.1.9l-.6,1.3-1.1,1.8-2.1,3.5a26.8,26.8,0,0,0-1.9,3.8,8.8,8.8,0,0,0-.9,3.8,3.7,3.7,0,0,0,.6,1.8,5.4,5.4,0,0,0,4.3,1,30.7,30.7,0,0,0,9.7-2.5,41.2,41.2,0,0,0,8.2-5l4.7-4,1.9-2,.9-.3,1.1.3a1,1,0,0,1,.5.7.9.9,0,0,1-.3.8l-1.9,2ZM224,100.6c-2.3,0-4.1-1.4-4.1-3.2s1.8-3.2,4.1-3.2a4.7,4.7,0,0,1,3,1,2.7,2.7,0,0,1,0,4.5,4.7,4.7,0,0,1-3,1Zm0-4.1q-1.1,0-1.1,1t1.1,1a1.031,1.031,0,1,0,.5-2Z"
                      fill="#14100e" stroke="#14100e" stroke-miterlimit="10" stroke-width="1.89"/>
                <text transform="translate(172.8 37.1)" fill="#14100e" font-size="12.76"
                      font-family="DINAlternate-Bold, DIN Alternate" font-weight="700" letter-spacing="0.09em">
                    <tspan x="0" y="0">Na</tspan>
                </text>
                <text transform="translate(190.2 37.1)" fill="#14100e" font-size="12.76"
                      font-family="DINAlternate-Bold, DIN Alternate" font-weight="700" letter-spacing="0.07em">
                    <tspan x="0" y="0">i</tspan>
                </text>
                <text transform="translate(194.1 37.1)" fill="#14100e" font-size="12.76"
                      font-family="DINAlternate-Bold, DIN Alternate" font-weight="700" letter-spacing="0.08em">
                    <tspan x="0" y="0">l</tspan>
                </text>
                <text transform="translate(198.4 37.1)" fill="#14100e" font-size="12.76"
                      font-family="DINAlternate-Bold, DIN Alternate" font-weight="700" letter-spacing="0.1em">
                    <tspan x="0" y="0">l</tspan>
                </text>
                <text transform="translate(207.3 37.1)" fill="#14100e" font-size="12.76"
                      font-family="DINAlternate-Bold, DIN Alternate" font-weight="700" letter-spacing="0.07em">
                    <tspan x="0" y="0">Sa</tspan>
                </text>
                <text transform="translate(222.8 37.1)" fill="#14100e" font-size="12.76"
                      font-family="DINAlternate-Bold, DIN Alternate" font-weight="700" letter-spacing="0.08em">
                    <tspan x="0" y="0">llo</tspan>
                </text>
                <text transform="translate(238.8 37.1)" fill="#14100e" font-size="12.76"
                      font-family="DINAlternate-Bold, DIN Alternate" font-weight="700" letter-spacing="0.1em">
                    <tspan x="0" y="0">n</tspan>
                </text>
            </g>
        </g>
    </g>
</svg>