<svg xmlns="http://www.w3.org/2000/svg" width="90.484" height="57.755" viewBox="0 0 90.484 57.755">
    <g transform="translate(45.138 28.773)">
        <g transform="translate(-45 -28.635)">
            <path d="M1.349,54.769A.949.949,0,0,1,.4,53.93a25.082,25.082,0,0,1,.876-3.651q.694-2.191,1.716-4.856t2.337-5.7l2.665-6.17a.511.511,0,0,1-.548-.256H5.8l-1.5-.11Q.948,32.644.546,31.366c-.292-.511-.073-.84.621-.949s1.1-.073,1.351.475.4.256.949.438a13.838,13.838,0,0,0,2.884.292,10.405,10.405,0,0,0,2.592,0l2.191-4.783,2.994-6.462q1.424-3.1,2.446-5.623a36.583,36.583,0,0,0,1.606-4.308,8.141,8.141,0,0,0,.329-1.57.548.548,0,0,1-.073-.73q.219-.8,1.241-.475t.694.475l.219.548a2.227,2.227,0,0,1-.073,1.022,17.052,17.052,0,0,1-.548,1.935q-.4,1.2-1.241,3.286l-2.519,5.732-3.1,6.718-1.9,4.053c2.264-.183,4.527-.511,6.754-.913a63.418,63.418,0,0,0,7.777-1.935q2.264-.73,4.929-1.825a56.224,56.224,0,0,0,5.4-2.556,44.4,44.4,0,0,0,5.4-3.468,28.916,28.916,0,0,0,4.856-4.527,18.693,18.693,0,0,0,2.811-3.943,8,8,0,0,0,.876-3.1,4.491,4.491,0,0,0-.475-2.3A5.878,5.878,0,0,0,48.3,5.3a11.647,11.647,0,0,0-5.732-2.665A39.687,39.687,0,0,0,34.1,1.9,55.64,55.64,0,0,0,24.058,3,64.075,64.075,0,0,0,13.872,5.846a1.132,1.132,0,0,1-1.351-.438.584.584,0,0,1-.037-.621.876.876,0,0,1,.584-.4A65.1,65.1,0,0,1,23.511,1.538,62.614,62.614,0,0,1,34.172.369a37.277,37.277,0,0,1,9.42.913,13.874,13.874,0,0,1,6.1,2.921,7.667,7.667,0,0,1,1.643,1.935,5.44,5.44,0,0,1,.694,2.775,8.945,8.945,0,0,1-.949,3.651,18.219,18.219,0,0,1-3.213,4.527,35.852,35.852,0,0,1-5.4,4.965,47.828,47.828,0,0,1-5.915,3.834,55.567,55.567,0,0,1-5.988,2.848,57.065,57.065,0,0,1-5.55,1.862,54.658,54.658,0,0,1-5.951,1.46q-2.994.548-5.805.913a51.55,51.55,0,0,1,5.55,1.46,43.117,43.117,0,0,1,6.426,2.556A40.927,40.927,0,0,1,31.653,40.9,26.652,26.652,0,0,1,37.312,46.7a.621.621,0,0,1,.219.621.8.8,0,0,1-.548.511h-.548a1.1,1.1,0,0,1-.949-.438,32.248,32.248,0,0,0-14.2-10.405,42.825,42.825,0,0,0-6.5-2.045L9.966,33.922q-1.314,3.14-2.665,6.17T5,45.751q-1.022,2.665-1.716,4.783a14.641,14.641,0,0,0-.84,3.541.986.986,0,0,1-1.022.657Z"
                  transform="translate(-0.4 -0.352)" fill="#14100e" stroke="#14100e" stroke-miterlimit="10"
                  stroke-width="0.274"/>
            <path d="M123.869,108.194c.219.256.219.438.073.548l-.767.8-1.9,1.57a21.472,21.472,0,0,1-2.446,1.643,8.471,8.471,0,0,1-2.519.986h-.621a1.679,1.679,0,0,1-1.022-.292,1.132,1.132,0,0,1-.4-1.168,10.59,10.59,0,0,1,.329-1.46l.219-.657-.767.657-1.1.913-1.424.986-1.57.73a5.294,5.294,0,0,1-1.789.292q-1.022.073-1.241-.365a1.862,1.862,0,0,1-.329-.621,2.629,2.629,0,0,1,.4-1.278,10.113,10.113,0,0,1,1.972-2.373l.876-.8.949-.8,1.1-.657.4-.183a2.154,2.154,0,0,1,1.643.438,1.716,1.716,0,0,1,.4.657,1.753,1.753,0,0,1-.219,1.278.438.438,0,0,1-.292.219.584.584,0,0,1-.4-.037q-.548-.183-.329-.548a1.46,1.46,0,0,0,.073-1.1.73.73,0,0,0-.694-.183l-1.022.657a19.347,19.347,0,0,0-1.789,1.643,10.076,10.076,0,0,0-1.57,1.935,1.972,1.972,0,0,0-.4,1.022v.11h.4a4.637,4.637,0,0,0,1.5-.256,6.973,6.973,0,0,0,1.424-.657l1.168-.84,1.022-.84,1.168-.913a1.059,1.059,0,0,1,.949-.183q.621.11.548.84l-.219.986-.146.621-.146.621a1.022,1.022,0,0,0,0,.475l.146.183q.073.11.621,0a11.726,11.726,0,0,0,4.564-2.483l1.022-.8.767-.657.694-.657a.329.329,0,0,1,.329-.183Z"
                  transform="translate(-67.826 -67.833)" fill="#14100e" stroke="#14100e" stroke-miterlimit="10"
                  stroke-width="0.69"/>
            <path d="M153.309,101.513a2.556,2.556,0,0,1-2.191-.986A3.468,3.468,0,0,1,150.5,98.3a11.867,11.867,0,0,1,.4-2.665,28.074,28.074,0,0,1,1.1-3.468l-2.446.183-3.067.475a6.17,6.17,0,0,1-1.168,6.827,5.659,5.659,0,0,1-2.191,1.387,7.485,7.485,0,0,1-2.592.438,2.373,2.373,0,0,1-2.045-.913,3.615,3.615,0,0,1-.548-2.191,13.107,13.107,0,0,1,.548-3.286q.548-1.935,1.5-4.491l.4-.913.4-.913-1.168-.256-1.351-.183q-.475,0-.475-.438a.329.329,0,0,1,.146-.329.548.548,0,0,1,.4-.11h.329l.621-.256,1.022-.621,1.5-1.022.694-.475,1.022-2.045,1.1-2.045,2.446-4.235q1.168-2.118,2.264-3.761l.876-1.314.767-1.1a4.454,4.454,0,0,1,.876-.913,1.1,1.1,0,0,1,.548-.183,2.556,2.556,0,0,1,1.716.548,1.533,1.533,0,0,1,.548,1.278q0,1.643-2.118,4.6a29.975,29.975,0,0,1-2.118,2.738l-2.592,2.848L145.5,83.733l-2.191,1.935-.475.986-.4.986,2.592-.11,2.994-.183,3.14-.256,3.14-.365,1.424-2.665,1.972-3.468,1.972-2.957.767-1.1.621-.84a3.249,3.249,0,0,1,.694-.73,1.1,1.1,0,0,1,.548-.183.548.548,0,0,1,.4.11.329.329,0,0,1,.146.329.292.292,0,0,1-.073.292.511.511,0,0,1-.329.146,4.454,4.454,0,0,0-.767.84,28.224,28.224,0,0,0-1.789,2.483l-2.118,3.4a33.919,33.919,0,0,0-1.972,3.761l-.329.548,3.761-.657a17.852,17.852,0,0,0,2.811-.84.584.584,0,0,1,.4-.037.438.438,0,0,1,.292.219.292.292,0,0,1,.073.329.438.438,0,0,1-.292.219,18.035,18.035,0,0,1-3.359.986l-4.2.657-1.022,2.008-.767,1.862h.219a8.215,8.215,0,0,1,5.111,1.752,3.761,3.761,0,0,1,1.351,2.41,5.176,5.176,0,0,1-2.884,4.965,7.3,7.3,0,0,1-3.651.949ZM141.626,89.392A41.621,41.621,0,0,0,139.363,96q-.621,2.738-.073,3.87a1.314,1.314,0,0,0,.621.73l.694.11a5.075,5.075,0,0,0,3.761-1.46,4.418,4.418,0,0,0,1.1-1.57,7.047,7.047,0,0,0,.475-1.935,5.513,5.513,0,0,0-.475-2.665l-.475.11a.694.694,0,0,1-.621-.037.365.365,0,0,1-.183-.475.548.548,0,0,1,.475-.292h.4a7.119,7.119,0,0,0-.949-1.278,6.572,6.572,0,0,0-2.519-1.825Zm-.073-2.3-.548.365-.548.365h.767Zm3.432,3.5a8.581,8.581,0,0,1,1.168,1.5,29.865,29.865,0,0,1,6.024-.73l.767-1.826.876-1.935-1.351.11-1.351.11-4.856.548-4.235.256h-.073a8.288,8.288,0,0,1,3.067,2.008Zm7.521-20.227a7.447,7.447,0,0,0-.949,1.1q-.694.913-2.045,3.1l-2.592,4.308-2.483,4.637V83.7l1.351-1.278,1.241-1.278q1.5-1.57,2.738-3.03a29.969,29.969,0,0,0,2.118-2.738,15.592,15.592,0,0,0,1.351-2.3,4.308,4.308,0,0,0,.475-1.679.876.876,0,0,0-.329-.8,1.2,1.2,0,0,0-.876-.256Zm.548,21.869a22.964,22.964,0,0,0-1.351,4.527,5.7,5.7,0,0,0,.073,2.921,1.464,1.464,0,0,0,1.57.986,5.4,5.4,0,0,0,4.929-2.592,3.615,3.615,0,0,0,.548-2.3,3.176,3.176,0,0,0-1.168-2.008,6.755,6.755,0,0,0-1.643-.913,8.836,8.836,0,0,0-3.067-.621Z"
                  transform="translate(-87.628 -44.248)" fill="#14100e" stroke="#14100e" stroke-miterlimit="10"
                  stroke-width="0.69"/>
            <path d="M222.162,103.035a17.452,17.452,0,0,1-3.14,2.008,10.077,10.077,0,0,1-3.907.913h-.475a2.7,2.7,0,0,1-2.045-.657,1.606,1.606,0,0,1-.4-1.168,5.075,5.075,0,0,1,.329-1.46,8.545,8.545,0,0,1,.694-1.5l.767-1.387.621-1.022q.073-.365.621-.292a.548.548,0,0,1,.365.219.329.329,0,0,1,.037.329l-.219.475-.4.657-.767,1.278a9.783,9.783,0,0,0-.694,1.387,3.213,3.213,0,0,0-.329,1.387,1.351,1.351,0,0,0,.219.657,1.972,1.972,0,0,0,1.57.365,11.208,11.208,0,0,0,3.541-.913,15.042,15.042,0,0,0,2.994-1.825l1.716-1.46.694-.73.329-.11.4.11a.365.365,0,0,1,.183.256.329.329,0,0,1-.11.292l-.694.73Zm-5.659-6.5a1.2,1.2,0,1,1,0-2.337,1.716,1.716,0,0,1,1.1.365.986.986,0,0,1,0,1.643,1.716,1.716,0,0,1-1.1.365Zm0-1.5q-.4,0-.4.365t.4.365a.376.376,0,1,0,.183-.73Z"
                  transform="translate(-134.866 -59.935)" fill="#14100e" stroke="#14100e" stroke-miterlimit="10"
                  stroke-width="0.69"/>
        </g>
    </g>
</svg>